<svg width="51" height="92" viewBox="0 0 51 92" fill="none" xmlns="http://www.w3.org/2000/svg">
  <path d="M49.6542 63.0139H4.35416C3.85416 63.0139 3.45416 62.6139 3.45416 62.1139V55.4139C3.45416 53.9139 4.65416 52.7139 6.15416 52.7139H47.9542C49.4542 52.7139 50.6542 53.9139 50.6542 55.4139V62.1139C50.5542 62.6139 50.1542 63.0139 49.6542 63.0139ZM46.7542 64.5139H7.25416L11.8542 85.7139C12.6542 89.4139 15.8542 92.0139 19.5542 92.0139H34.3542C38.0542 92.0139 41.3542 89.4139 42.0542 85.7139L46.7542 64.5139Z" fill="#D5D2CC"/>
  <path d="M49.2542 34.1141C48.8542 32.7141 46.7542 32.1141 44.5542 32.8141C44.1542 32.9141 43.8542 33.1141 43.5542 33.2141C43.6542 33.1141 43.6542 33.0141 43.7542 32.9141C44.9542 30.9141 45.7542 28.9141 46.1542 27.0141L47.3542 26.4141C47.5542 26.3141 47.6542 26.0141 47.5542 25.7141C47.4542 25.5141 47.1542 25.4141 46.8542 25.5141L46.4542 25.7141C46.9542 22.4141 46.3542 19.6141 44.4542 18.5141C43.8542 18.1141 43.0542 18.0141 42.2542 18.0141L42.3542 17.0141C42.3542 16.7141 42.1542 16.5141 41.9542 16.5141C41.6542 16.5141 41.4542 16.7141 41.4542 16.9141L41.3542 18.2141C40.1542 18.5141 38.9542 19.1141 37.6542 20.0141C37.8542 19.1141 37.8542 18.2141 37.8542 17.1141C37.5542 13.8141 35.8542 11.2141 34.0542 11.4141C33.6542 11.4141 33.2542 11.6141 32.8542 11.9141V11.8141C32.7542 11.6141 32.4542 11.5141 32.1542 11.6141C31.9542 11.7141 31.8542 12.0141 31.9542 12.3141L32.1542 12.7141C31.4542 13.9141 30.9542 15.7141 31.1542 17.7141C31.3542 20.6141 32.7542 22.9141 34.2542 23.3141C33.5542 24.2141 32.8542 25.1141 32.2542 26.2141C31.7542 27.0141 31.3542 27.8141 31.0542 28.7141L30.7542 28.3141C30.5542 28.1141 30.2542 28.0141 30.0542 28.2141C29.8542 28.4141 29.7542 28.7141 29.9542 28.9141L30.5542 29.8141C30.1542 30.9141 29.8542 32.0141 29.6542 33.0141C28.7542 30.3141 27.5542 27.9141 26.1542 25.9141L26.5542 25.2141C26.6542 25.0141 26.6542 24.7141 26.3542 24.5141C26.1542 24.4141 25.8542 24.4141 25.6542 24.7141L25.4542 25.0141C24.0542 23.1141 22.4542 21.5141 20.8542 20.4141C22.3542 19.6141 23.8542 17.9141 24.8542 15.7141L26.3542 15.2141C26.6542 15.1141 26.7542 14.8141 26.6542 14.6141C26.5542 14.4141 26.2542 14.2141 26.0542 14.3141L25.4542 14.5141C25.7542 13.7141 26.0542 12.9141 26.1542 12.0141C26.6542 9.61407 26.5542 7.31407 26.1542 5.41407L26.7542 4.51407C26.9542 4.31407 26.9542 4.01407 26.6542 3.81407C26.3542 3.61407 26.1542 3.61407 25.9542 3.91407L25.6542 4.21407C24.9542 2.31407 23.6542 0.914067 22.0542 0.614067C19.1542 0.114067 16.1542 2.81407 14.5542 7.11407L14.3542 6.91407C14.1542 6.71407 13.8542 6.71407 13.6542 6.91407C13.4542 7.11407 13.4542 7.41407 13.6542 7.61407L14.2542 8.21407C14.1542 8.71407 13.9542 9.21407 13.8542 9.61407C13.0542 13.3141 13.6542 16.7141 14.9542 18.8141C14.7542 18.8141 14.5542 18.9141 14.3542 18.9141C12.5542 19.5141 11.1542 21.0141 10.2542 23.1141L9.75421 22.6141C9.55421 22.4141 9.25421 22.4141 9.05421 22.6141C8.85421 22.8141 8.85421 23.1141 9.05421 23.3141L9.85421 24.2141C9.55421 25.2141 9.35421 26.5141 9.25421 27.8141L8.65421 27.4141C8.45421 27.3141 8.15421 27.3141 7.95421 27.6141C7.75421 27.9141 7.85421 28.1141 8.15421 28.3141L9.15421 28.9141C9.15421 29.8141 9.15421 30.7141 9.25421 31.7141C8.95421 31.4141 8.55421 31.2141 8.25421 30.9141C6.85421 30.0141 5.35421 29.6141 4.15421 29.5141L3.75421 28.8141C3.65421 28.6141 3.35421 28.5141 3.05421 28.6141C2.85421 28.7141 2.75421 29.0141 2.85421 29.3141L3.05421 29.6141C2.05421 29.8141 1.25421 30.2141 0.854211 30.9141C-0.345789 32.8141 1.15421 35.9141 4.05421 37.7141C6.45421 39.3141 9.15421 39.5141 10.6542 38.5141C10.7542 38.7141 10.7542 38.9141 10.8542 39.2141C11.3542 40.7141 11.9542 42.1141 12.6542 43.5141H11.8542C11.5542 43.5141 11.3542 43.7141 11.3542 44.0141C11.3542 44.3141 11.5542 44.6141 11.8542 44.6141L13.4542 44.9141C14.9542 47.6141 16.7542 49.7141 18.6542 51.3141H29.2542C30.2542 49.9141 30.9542 48.1141 31.2542 46.0141L32.4542 45.1141C32.6542 44.9141 32.7542 44.6141 32.5542 44.4141C32.3542 44.2141 32.0542 44.1141 31.8542 44.3141L31.3542 44.5141C31.4542 43.2141 31.4542 41.7141 31.2542 40.3141C31.3542 40.4141 31.4542 40.5141 31.5542 40.5141C34.1542 42.0141 38.1542 40.1141 41.4542 36.2141C41.4542 36.3141 41.4542 36.4141 41.5542 36.6141C41.9542 38.0141 44.0542 38.6141 46.2542 37.9141C48.2542 37.2141 49.6542 35.5141 49.2542 34.1141Z" fill="#D5D2CC"/>
  </svg>
  