<svg width="51" height="75" viewBox="0 0 51 75" fill="none" xmlns="http://www.w3.org/2000/svg">
  <path d="M14.0163 19.6496C14.1797 19.2411 14.6698 19.0777 15.0783 19.3228C17.9378 20.7934 20.2254 22.7541 22.0228 25.1234C22.2679 25.4502 22.1862 26.0221 21.8594 26.2672C21.696 26.3489 21.5326 26.4306 21.3692 26.4306C21.1241 26.4306 20.879 26.3489 20.7156 26.1038C19.1633 23.8979 17.0391 22.1822 14.3431 20.7934C14.0163 20.5483 13.8529 20.0581 14.0163 19.6496ZM50.4542 23.4077L49.8006 24.4698C49.6372 24.7966 49.3921 25.3685 49.147 25.9404C48.9019 26.5123 48.6568 27.1659 48.4117 27.5744C48.1666 28.0646 47.9215 28.5548 47.5947 29.045C45.2254 33.4568 42.3659 38.7672 36.7287 42.0352H48.8202V50.2051H47.3496C46.5326 64.2574 37.0555 74.7966 25.1274 74.7966C13.1993 74.7966 3.72214 64.3391 2.90514 50.2868H1.51625V42.1169H12.6274C7.07181 38.7672 4.78423 33.9469 2.74174 29.5352L2.57835 29.2084C2.33325 28.6365 2.08815 27.9829 1.84305 27.2476C1.59795 26.5123 1.35286 25.6953 1.02606 25.2051L0.454163 23.9796H1.84305C4.94763 24.0613 7.7254 24.5515 10.1764 25.2868C8.379 19.6496 6.99011 16.7901 5.84632 14.5842L5.11103 13.1953L6.66331 13.4404C8.7875 13.7672 11.3202 14.2574 13.7712 15.2378C13.6895 14.9927 13.6078 14.7476 13.5261 14.5025V14.4208C13.1176 12.9502 12.3006 9.92734 12.5457 6.16917L12.7091 4.94368L14.1797 5.51557C16.2221 6.25087 18.1012 6.90446 20.1437 8.53845C20.3071 7.96655 20.5522 7.47636 20.7973 6.98616C21.8594 5.02538 23.2483 2.98289 24.2287 1.6757L25.0457 0.695312L25.6993 1.6757C26.8431 3.39139 28.3136 6.08747 29.0489 8.04825C29.1306 8.21165 29.1306 8.29335 29.2123 8.45675C31.5816 6.57767 34.0326 6.00577 35.6666 5.59727L36.5653 5.43387L36.647 6.33257C37.1372 10.009 36.7287 13.0319 36.4019 14.6659C38.5261 14.0123 40.4868 13.7672 42.2842 13.5221C42.6927 13.4404 43.1012 13.4404 43.5097 13.3587L44.8986 13.1953L44.4084 14.5025C44.245 14.9927 43.8365 15.5646 43.3463 16.3816C42.2842 18.0156 40.7319 20.4666 39.7515 23.7345C42.2842 23.1626 46.6143 22.9992 49.2287 23.2443L50.4542 23.4077ZM27.4966 23.4894C27.0064 24.143 26.598 24.8783 26.3529 25.6953C27.1698 27.1659 27.7417 28.7999 28.1502 30.4339C30.6012 27.9829 33.7875 26.0221 37.8725 24.3881C37.8725 24.3064 37.8725 24.3064 37.9542 24.2247C39.0163 20.3032 40.8136 17.4437 42.0391 15.4829C42.1208 15.4012 42.2025 15.2378 42.2025 15.1561C37.7908 15.728 32.4803 16.545 27.4966 23.4894ZM35.1764 7.47636C33.5424 7.88486 31.3365 8.62015 29.3757 10.5809C28.3953 11.5613 27.4966 12.7051 26.7614 14.094C26.5163 14.5025 26.3529 14.911 26.1895 15.4012C27.0882 16.9535 27.7417 18.5875 28.1502 20.3032C30.3561 17.9339 32.562 16.4633 34.6862 15.4829C34.7679 15.2378 34.8496 14.911 34.9313 14.6659C35.0947 13.1953 35.5032 10.5809 35.1764 7.47636ZM21.5326 9.68224C22.4313 10.4992 23.33 11.4796 24.3104 12.6234C24.5555 12.9502 24.8006 13.277 25.0457 13.6038C25.1274 13.4404 25.2091 13.277 25.2908 13.1953C26.0261 11.8064 26.9247 10.6626 27.9051 9.68224C27.8234 9.27374 27.7417 8.94695 27.5783 8.62015C27.0065 7.14956 25.9444 5.10708 24.964 3.55479C24.147 4.69858 23.1666 6.25087 22.3496 7.72146C21.9411 8.37505 21.7777 9.02865 21.5326 9.68224ZM14.1797 7.23126C14.098 10.2541 14.7515 12.6234 15.16 13.8489V13.9306C15.3234 14.5842 15.5685 15.3195 15.8953 15.9731C19.1633 17.5254 22.2679 19.7313 24.7189 23.1626C24.8823 23.4077 25.1274 23.7345 25.2908 23.9796C25.5359 23.4894 25.8627 22.9992 26.1895 22.509C26.3529 22.2639 26.598 22.0188 26.7614 21.7737C26.2712 18.8326 25.0457 16.0548 23.0849 13.6855C19.5718 9.43714 17.1208 8.37505 14.1797 7.23126ZM11.9738 25.5319C12.0555 25.6953 12.0555 25.8587 12.1372 26.0221C18.6731 28.6365 22.4313 33.2117 24.2287 35.9894C24.8823 34.5188 25.6993 33.2117 26.7614 31.9862C26.4346 30.0254 25.6993 28.1463 24.7189 26.2672C24.7189 26.1855 24.6372 26.1855 24.6372 26.1038C24.2287 25.4502 23.8202 24.7966 23.4117 24.143C19.3267 18.5058 13.1176 16.2182 8.0522 15.2378C9.11429 17.4437 10.3398 20.4666 11.9738 25.5319ZM16.0587 41.9535C16.1404 41.9535 16.1404 42.0352 16.2221 42.0352H25.2908C25.0457 41.0548 24.5555 39.6659 23.7385 38.1136C22.2679 35.3358 16.4672 26.4306 3.15024 25.6136C3.23194 25.9404 3.39534 26.2672 3.47704 26.6757C3.72214 27.3293 3.88554 27.9829 4.13063 28.4731L4.29403 28.7999C6.58161 33.7836 8.9509 39.0123 16.0587 41.9535ZM3.15024 43.7509V48.6528H47.2679V43.7509H3.15024ZM47.8398 24.7966C44.8169 24.6332 40.8136 24.96 39.2614 25.5319C39.098 25.6136 39.0163 25.6136 38.8529 25.6953H38.7712C31.5816 28.4731 27.4149 32.1496 25.2908 37.5417C26.1078 39.0123 26.598 40.5646 26.9248 41.9535H33.1339C33.2156 41.9535 33.2156 41.8718 33.2973 41.8718C40.4051 39.094 43.6731 33.0483 46.2875 28.228C46.5326 27.7378 46.8594 27.1659 47.1045 26.7574C47.2679 26.4306 47.513 25.8587 47.6764 25.2868C47.7581 25.2051 47.8398 24.96 47.8398 24.7966ZM39.8332 27.0842C34.6045 29.045 30.928 31.5777 28.6404 34.7639C28.3953 35.0907 28.477 35.6626 28.8038 35.9077C28.9672 35.9894 29.1306 36.0711 29.294 36.0711C29.5391 36.0711 29.7842 35.9894 29.9476 35.7443C32.0718 32.8032 35.4215 30.5156 40.4051 28.6365C40.8136 28.4731 41.0587 27.9829 40.8953 27.5744C40.7319 27.1659 40.2417 26.9208 39.8332 27.0842ZM18.8365 36.7247C18.9999 36.8881 19.245 37.0515 19.4901 37.0515C19.6535 37.0515 19.8169 36.9698 19.9803 36.8881C20.3071 36.643 20.3888 36.0711 20.062 35.7443C18.2646 33.4568 14.9966 30.4339 9.93129 28.6365C9.52279 28.4731 9.03259 28.7182 8.8692 29.1267C8.7058 29.5352 8.95089 30.0254 9.35939 30.1888C14.098 31.8228 17.1208 34.6822 18.8365 36.7247Z" fill="#D5D2CC"/>
  </svg>
  